<svg width="154" height="146" xmlns="http://www.w3.org/2000/svg" xmlns:xlink="http://www.w3.org/1999/xlink" overflow="hidden"><defs><filter id="fx0" x="-10%" y="-10%" width="120%" height="120%" filterUnits="userSpaceOnUse" primitiveUnits="userSpaceOnUse"><feComponentTransfer color-interpolation-filters="sRGB"><feFuncR type="discrete" tableValues="0 0"/><feFuncG type="discrete" tableValues="0 0"/><feFuncB type="discrete" tableValues="0 0"/><feFuncA type="linear" slope="0.431373" intercept="0"/></feComponentTransfer><feGaussianBlur stdDeviation="0.994887 0.994887"/></filter><clipPath id="clip1"><rect x="498" y="575" width="154" height="146"/></clipPath><clipPath id="clip2"><rect x="36" y="39" width="84" height="47"/></clipPath><clipPath id="clip3"><rect x="0" y="0" width="156" height="142"/></clipPath></defs><g clip-path="url(#clip1)" transform="translate(-498 -575)"><path d="M506.5 639C506.5 604.482 536.497 576.5 573.5 576.5 610.503 576.5 640.5 604.482 640.5 639 640.5 673.518 610.503 701.5 573.5 701.5 536.497 701.5 506.5 673.518 506.5 639Z" stroke="#2F528F" stroke-width="1.33333" stroke-miterlimit="8" fill="#4472C4" fill-rule="evenodd"/><g clip-path="url(#clip2)" filter="url(#fx0)" transform="translate(497 579)"><g clip-path="url(#clip3)"><path d="M23.75 0 23.0938-8.0625 8.84375-8.0625 4.9375 0-3.0625 0 17.2188-40.8438 27.9688-40.8438 31.875 0ZM21.125-33.3438 11.9062-14.3438 22.5938-14.3438ZM56.1042 0 47.7604-19.7812 43.7917 0 35.9479 0 44.1354-40.8438 52.0104-40.8438 48.3542-22.5938 64.0417-40.8438 73.8229-40.8438 55.6354-21.0625 65.7604 0Z" fill="#F4B183" transform="translate(42.7145 83)"/></g></g><text fill="#F4B183" font-family="Consolas,Consolas_MSFontService,sans-serif" font-style="italic" font-weight="700" font-size="64" transform="translate(537.604 660)">AK</text></g></svg>